<?xml version="1.0" standalone="no"?>
<!DOCTYPE svg PUBLIC "-//W3C//DTD SVG 20010904//EN"
 "http://www.w3.org/TR/2001/REC-SVG-20010904/DTD/svg10.dtd">
<svg version="1.0" xmlns="http://www.w3.org/2000/svg"
 width="300.000000pt" height="300.000000pt" viewBox="0 0 300.000000 300.000000"
 preserveAspectRatio="xMidYMid meet">
<metadata>
Created by potrace 1.11, written by Peter Selinger 2001-2013
</metadata>
<g transform="translate(0.000000,300.000000) scale(0.100000,-0.100000)"
fill="#000000" stroke="none">
<path d="M1388 2668 c-59 -62 -134 -140 -167 -173 -33 -33 -61 -64 -61 -68 0
-5 45 -54 99 -110 55 -56 110 -113 123 -127 l23 -26 0 -962 0 -962 182 0 183
0 0 275 c0 151 -3 276 -7 276 -5 1 -39 3 -78 4 -38 1 -74 3 -80 4 -7 1 -10
237 -10 685 l0 685 30 33 c17 18 39 42 50 53 11 11 52 54 92 95 l72 75 -172
178 -172 179 -107 -114z"/>
<path d="M517 1782 c-279 -279 -507 -510 -507 -514 0 -4 87 -9 193 -10 l192
-3 2 -495 c0 -272 1 -501 2 -507 1 -10 27 -13 96 -13 l95 0 0 547 0 548 352
352 352 352 -127 125 c-69 69 -130 126 -134 126 -4 0 -236 -229 -516 -508z"/>
<path d="M1831 2163 l-124 -125 358 -358 358 -358 0 -541 0 -541 96 0 96 0 -1
510 -1 510 189 0 c103 0 188 3 188 8 0 11 -1015 1022 -1025 1022 -6 -1 -66
-57 -134 -127z"/>
</g>
</svg>
